<?xml version="1.0" encoding="UTF-8" standalone="no"?>
<!DOCTYPE svg PUBLIC "-//W3C//DTD SVG 1.1//EN"
 "http://www.w3.org/Graphics/SVG/1.1/DTD/svg11.dtd">
<!-- Generated by graphviz version 2.40.1 (20161225.0304)
 -->
<!-- Title: G Pages: 1 -->
<svg width="151pt" height="474pt"
 viewBox="0.00 0.00 151.00 474.00" xmlns="http://www.w3.org/2000/svg" xmlns:xlink="http://www.w3.org/1999/xlink">
<g id="graph0" class="graph" transform="scale(1 1) rotate(0) translate(4 470)">
<title>G</title>
<polygon fill="#ffffff" stroke="transparent" points="-4,4 -4,-470 147,-470 147,4 -4,4"/>
<g id="clust1" class="cluster">
<title>cluster_Global</title>
<path fill="none" stroke="#c0c0c0" d="M20,-8C20,-8 123,-8 123,-8 129,-8 135,-14 135,-20 135,-20 135,-446 135,-446 135,-452 129,-458 123,-458 123,-458 20,-458 20,-458 14,-458 8,-452 8,-446 8,-446 8,-20 8,-20 8,-14 14,-8 20,-8"/>
<text text-anchor="middle" x="71.5" y="-445.2" font-family="Times,serif" font-size="11.00" fill="#c0c0c0">Global</text>
</g>
<!-- \\RecipeView -->
<g id="node1" class="node">
<title>\\RecipeView</title>
<polygon fill="none" stroke="#000000" points="113.5,-430 29.5,-430 29.5,-394 113.5,-394 113.5,-430"/>
<text text-anchor="middle" x="71.5" y="-409.2" font-family="Courier,monospace" font-size="11.00" fill="#000000">RecipeView</text>
</g>
<!-- \\RecipeSearch -->
<g id="node2" class="node">
<title>\\RecipeSearch</title>
<polygon fill="none" stroke="#000000" points="120.5,-376 22.5,-376 22.5,-340 120.5,-340 120.5,-376"/>
<text text-anchor="middle" x="71.5" y="-355.2" font-family="Courier,monospace" font-size="11.00" fill="#000000">RecipeSearch</text>
</g>
<!-- \\User -->
<g id="node3" class="node">
<title>\\User</title>
<polygon fill="none" stroke="#000000" points="98.5,-322 44.5,-322 44.5,-286 98.5,-286 98.5,-322"/>
<text text-anchor="middle" x="71.5" y="-301.2" font-family="Courier,monospace" font-size="11.00" fill="#000000">User</text>
</g>
<!-- \\Application -->
<g id="node4" class="node">
<title>\\Application</title>
<polygon fill="none" stroke="#000000" points="117,-268 26,-268 26,-232 117,-232 117,-268"/>
<text text-anchor="middle" x="71.5" y="-247.2" font-family="Courier,monospace" font-size="11.00" fill="#000000">Application</text>
</g>
<!-- \\Recipe -->
<g id="node5" class="node">
<title>\\Recipe</title>
<polygon fill="none" stroke="#000000" points="100,-214 43,-214 43,-178 100,-178 100,-214"/>
<text text-anchor="middle" x="71.5" y="-193.2" font-family="Courier,monospace" font-size="11.00" fill="#000000">Recipe</text>
</g>
<!-- \\DB -->
<g id="node6" class="node">
<title>\\DB</title>
<polygon fill="none" stroke="#000000" points="98.5,-160 44.5,-160 44.5,-124 98.5,-124 98.5,-160"/>
<text text-anchor="middle" x="71.5" y="-139.2" font-family="Courier,monospace" font-size="11.00" fill="#000000">DB</text>
</g>
<!-- \\UserView -->
<g id="node7" class="node">
<title>\\UserView</title>
<polygon fill="none" stroke="#000000" points="107,-106 36,-106 36,-70 107,-70 107,-106"/>
<text text-anchor="middle" x="71.5" y="-85.2" font-family="Courier,monospace" font-size="11.00" fill="#000000">UserView</text>
</g>
<!-- \\UserController -->
<g id="node8" class="node">
<title>\\UserController</title>
<polygon fill="none" stroke="#000000" points="127,-52 16,-52 16,-16 127,-16 127,-52"/>
<text text-anchor="middle" x="71.5" y="-31.2" font-family="Courier,monospace" font-size="11.00" fill="#000000">UserController</text>
</g>
</g>
</svg>
